<svg xmlns="http://www.w3.org/2000/svg" viewBox="0 0 1024 512">
  <defs>
    <linearGradient id="grid" x1="0" y1="0" x2="1" y2="1">
      <stop offset="0" stop-color="#1a2742" stop-opacity="0.5"/>
      <stop offset="1" stop-color="#0b1324" stop-opacity="0.45"/>
    </linearGradient>
    <linearGradient id="coast" x1="0" y1="0" x2="1" y2="1">
      <stop offset="0" stop-color="#2d3f66" stop-opacity="0.88"/>
      <stop offset="1" stop-color="#1c2945" stop-opacity="0.78"/>
    </linearGradient>
  </defs>
  <rect width="1024" height="512" fill="url(#grid)"/>
  <g fill="url(#coast)" opacity="0.75">
    <path d="M72 252l46-48 102 14 38-30 78 20 16 40-54 64-82 16-108-40z"/>
    <path d="M306 286l48-20 40-70 60-36 102-6 34 36-24 70 40 32-24 42-154 12z"/>
    <path d="M568 220l46-60 94-22 88 18 42 34-20 52 54 16 28 52-74 48-116-20-94-8-40-44z"/>
    <path d="M832 292l40-28 74 14 30 32 48 16-10 30-32 20-84 12-66-28z"/>
    <path d="M752 352l58-8 60 40 8 44-42 34-68-26-28-40z"/>
    <path d="M160 190l26-66 66-24 58 8 8 32-48 40-62 26z" opacity="0.85"/>
    <path d="M398 130l28-42 68 4 48 28-24 34-60 6z" opacity="0.82"/>
  </g>
  <g stroke="rgba(255,255,255,0.05)" stroke-width="1">
    <path d="M0 128h1024M0 256h1024M0 384h1024M256 0v512M512 0v512M768 0v512"/>
  </g>
</svg>
